<?xml version="1.0" encoding="utf-8"?>
<!-- Generator: Adobe Illustrator 16.0.0, SVG Export Plug-In . SVG Version: 6.00 Build 0)  -->
<!DOCTYPE svg PUBLIC "-//W3C//DTD SVG 1.1//EN" "http://www.w3.org/Graphics/SVG/1.1/DTD/svg11.dtd">
<svg version="1.1" id="圖層_1" xmlns="http://www.w3.org/2000/svg" xmlns:xlink="http://www.w3.org/1999/xlink" x="0px" y="0px"
	 width="141.166px" height="141.151px" viewBox="0 0 141.166 141.151" enable-background="new 0 0 141.166 141.151"
	 xml:space="preserve">
<g>
	<g>
		<path fill="#333333" d="M11.546,141.151c-0.416,0-0.831-0.113-1.195-0.318c-0.752-0.434-1.208-1.23-1.208-2.084V2.405
			c0-0.854,0.456-1.652,1.208-2.084c0.74-0.428,1.656-0.428,2.396,0l118.081,68.167c0.74,0.434,1.195,1.23,1.195,2.086
			c0,0.865-0.455,1.65-1.195,2.084L12.747,140.833C12.383,141.038,11.967,141.151,11.546,141.151z M13.954,6.573v128.008
			l110.854-64.008L13.954,6.573z"/>
	</g>
	<g>
		<path fill="#333333" d="M53.666,62.11c-0.211,0.354-0.398-5.865-1.122-14.246c0,0,0.724-2.119,2.733-1.709
			c0,0,1.509,0.604,1.708,2.723C56.985,48.878,57.498,55.642,53.666,62.11z"/>
	</g>
	<g>
		<path fill="#333333" d="M36.8,77.257c0,0-5.057,0.912-8.991,0.719c0,0-1.816,0.09-2.426,1.109c0,0,0.103,2.209,2.323,2.928
			c0,0,5.757,1.617,9.993-3.234C37.699,78.778,38.491,76.995,36.8,77.257z"/>
	</g>
	<g>
		<path fill="#333333" d="M66.085,62.122c0,0-1.708,7.471-3.337,12.311c0,0-1.298,5.324-3.587,7.842c0,0-5.296,5.797-11.36,9.338
			c0,0,10.313-2.221,16.166-5.262c0,0,3.439-1.605,3.439-11.314c0,0,0.404-5.648-0.41-13.836
			C66.996,61.2,66.353,61.019,66.085,62.122z"/>
	</g>
</g>
</svg>
