<?xml version="1.0" encoding="utf-8"?>
<!-- Generator: Adobe Illustrator 16.0.0, SVG Export Plug-In . SVG Version: 6.00 Build 0)  -->
<!DOCTYPE svg PUBLIC "-//W3C//DTD SVG 1.1//EN" "http://www.w3.org/Graphics/SVG/1.1/DTD/svg11.dtd">
<svg version="1.1" id="圖層_1" xmlns="http://www.w3.org/2000/svg" xmlns:xlink="http://www.w3.org/1999/xlink" x="0px" y="0px"
	 width="212.939px" height="212.938px" viewBox="0 0 212.939 212.938" enable-background="new 0 0 212.939 212.938"
	 xml:space="preserve">
<g>
	<polygon fill="#333333" points="-0.001,198.263 106.47,13.851 212.94,198.263 	"/>
	<g>
		<g>
			<path fill="#FFFFFF" d="M79.942,151.116h-13.8c-1.737,0-3.146-1.383-3.146-3.137v-27.283c0-1.703,1.408-3.137,3.146-3.137
				c1.702,0,3.094,1.434,3.094,3.137v24.197h10.706c1.666,0,3.168,1.367,3.168,3.088C83.11,149.733,81.608,151.116,79.942,151.116z"
				/>
		</g>
		<g>
			<path fill="#FFFFFF" d="M89.548,151.116c-1.674,0-3.1-1.383-3.1-3.137v-27.283c0-1.703,1.426-3.137,3.1-3.137
				c1.726,0,3.107,1.434,3.107,3.137v27.283C92.655,149.733,91.273,151.116,89.548,151.116z"/>
		</g>
		<g>
			<path fill="#FFFFFF" d="M132.887,151.116c-1.734,0-3.154-1.379-3.154-3.137V120.7c0-1.707,1.42-3.139,3.154-3.139h13.955
				c1.708,0,3.1,1.432,3.1,3.135c0,1.725-1.392,3.154-3.1,3.154h-10.846v24.129C135.996,149.737,134.63,151.116,132.887,151.116z"/>
		</g>
		<g>
			<path fill="#FFFFFF" d="M121.356,151.116c-1.004,0-1.932-0.467-2.529-1.277l-14.193-19.516v17.656
				c0,1.754-1.391,3.137-3.108,3.137c-1.741,0-3.181-1.383-3.181-3.137v-27.283c0-1.34,0.888-2.535,2.176-2.941
				c1.279-0.449,2.723,0.043,3.494,1.133l14.197,19.443l-0.08-17.631c0-1.707,1.391-3.139,3.157-3.139l0,0
				c1.718,0,3.101,1.432,3.101,3.139l0.086,27.279c0,1.375-0.861,2.564-2.164,2.986
				C122.011,151.077,121.676,151.116,121.356,151.116z"/>
		</g>
		<g>
			<path fill="#FFFFFF" d="M146.842,137.503h-13.955c-1.734,0-3.154-1.404-3.154-3.137c0-1.738,1.42-3.16,3.154-3.16h13.955
				c1.708,0,3.1,1.422,3.1,3.16C149.941,136.081,148.55,137.503,146.842,137.503z"/>
		</g>
		<g>
			<path fill="#FFFFFF" d="M146.842,151.116h-13.955c-1.734,0-3.154-1.379-3.154-3.137c0-1.719,1.42-3.086,3.154-3.086h13.955
				c1.708,0,3.1,1.367,3.1,3.086C149.941,149.737,148.55,151.116,146.842,151.116z"/>
		</g>
	</g>
</g>
</svg>
