<?xml version="1.0" encoding="utf-8"?>
<!-- Generator: Adobe Illustrator 16.0.0, SVG Export Plug-In . SVG Version: 6.00 Build 0)  -->
<!DOCTYPE svg PUBLIC "-//W3C//DTD SVG 1.1//EN" "http://www.w3.org/Graphics/SVG/1.1/DTD/svg11.dtd">
<svg version="1.1" id="圖層_1" xmlns="http://www.w3.org/2000/svg" xmlns:xlink="http://www.w3.org/1999/xlink" x="0px" y="0px"
	 width="212.938px" height="212.938px" viewBox="0 0 212.938 212.938" enable-background="new 0 0 212.938 212.938"
	 xml:space="preserve">
<g>
	<polygon fill="#333333" points="-0.001,14.263 106.47,198.675 212.94,14.263 	"/>
	<path fill="#FFFFFF" d="M84.214,44.542c0,0,5.148-1.701,6.73,1.893l4.742,12.326c0,0,1.623,3.402-0.404,5.025l-4.609,2.727
		c0,0-1.311,0.719-1.391,1.938c0,0-0.23,1.213-0.055,3.053c0,0,2.326,6.852,10.041,14.27c0,0,5.326,5.744,13.393,9.273
		c0,0,1.635,0.148,3.258,0c0,0,1.297-0.135,2.014-1.893c0,0,0.986-2.055,2.244-3.811c0,0,1.215-2.328,5.066-0.934l11.352,4.354
		c0,0,4.84,1.16,3.271,6.402c0,0-1.162,6.904-7.176,10.232c0,0-5.109,3.58-12.609,1.838c0,0-3.717-0.77-7.893-2.822
		c0,0-19.324-9.367-34.623-33.166c0,0-7.055-10.641-4.068-20.689C73.497,54.558,75.497,47.325,84.214,44.542z"/>
</g>
</svg>
