<?xml version="1.0" encoding="utf-8"?>
<!-- Generator: Adobe Illustrator 16.0.0, SVG Export Plug-In . SVG Version: 6.00 Build 0)  -->
<!DOCTYPE svg PUBLIC "-//W3C//DTD SVG 1.1//EN" "http://www.w3.org/Graphics/SVG/1.1/DTD/svg11.dtd">
<svg version="1.1" id="圖層_1" xmlns="http://www.w3.org/2000/svg" xmlns:xlink="http://www.w3.org/1999/xlink" x="0px" y="0px"
	 width="212.938px" height="212.938px" viewBox="0 0 212.938 212.938" enable-background="new 0 0 212.938 212.938"
	 xml:space="preserve">
<polygon fill="#333333" points="-0.002,198.263 106.469,13.851 212.939,198.263 "/>
<g>
	<path fill-rule="evenodd" clip-rule="evenodd" fill="#FFFFFF" d="M62.013,136.017c0-4.707-0.085-9.385,0-14.092
		c0.09-4.188,0.09-8.4,1.009-12.527c1.965-8.688,6.963-14.704,15.448-17.678c3.091-1.073,6.238-1.602,9.441-1.649
		c9.673-0.141,19.345-0.215,28.989-0.244c3.175-0.015,6.379,0.076,9.531,0.302c5.711,0.404,11.058,1.895,15.533,5.635
		c4.589,3.797,7.128,8.702,8.197,14.468c0.637,3.436,0.75,6.902,0.778,10.398c0.061,8.66,0.146,17.348,0.061,26.011
		c-0.027,4.246-0.061,8.486-1.013,12.679c-1.965,8.627-6.902,14.667-15.393,17.663c-4.069,1.419-8.338,1.734-12.616,1.763
		c-9.178,0.061-18.332,0.146-27.515,0.089c-4.245-0.028-8.485-0.057-12.674-0.951c-9.182-2.05-15.33-7.364-18.19-16.373
		c-0.866-2.798-1.271-5.686-1.324-8.574c-0.174-5.63-0.264-11.289-0.377-16.918C61.928,136.017,61.957,136.017,62.013,136.017z
		 M106.625,97.897L106.625,97.897c-3.754,0-7.481-0.044-11.265,0c-3.75,0.061-7.533,0.117-11.26,0.706
		c-6.87,1.069-11.661,5.573-13.136,12.32c-0.75,3.411-0.839,6.846-0.839,10.28c-0.085,9.21-0.085,18.449,0.057,27.66
		c0.032,3.006,0.32,6.002,0.839,8.946c0.781,4.25,3.063,7.652,6.728,9.965c3.006,1.903,6.412,2.567,9.903,2.714
		c5.078,0.202,10.219,0.288,15.303,0.344c4.881,0.028,9.757,0,14.639-0.023c3.872-0.089,7.735-0.089,11.547-0.782
		c4.622-0.806,8.372-2.973,10.855-6.986c1.879-3.063,2.543-6.47,2.689-9.96c0.203-4.882,0.316-9.734,0.316-14.61
		c0.027-6.181,0-12.386-0.113-18.567c-0.028-3.029-0.123-6.059-0.812-9.036c-1.53-6.549-5.601-10.619-12.154-12.089
		c-3.406-0.764-6.818-0.783-10.252-0.854C115.341,97.826,110.982,97.897,106.625,97.897z"/>
	<path fill-rule="evenodd" clip-rule="evenodd" fill="#FFFFFF" d="M129.399,134.339c0.09,12.561-10.275,23.043-23.156,22.897
		c-12.381-0.146-22.746-10.304-22.601-23.241c0.114-12.301,10.361-22.525,22.69-22.554
		C119.209,111.386,129.489,121.868,129.399,134.339z M106.563,119.526c-8.287-0.028-14.841,6.643-14.869,15.101
		c0,7.712,6.79,14.469,14.464,14.553c8.435,0.09,15.101-6.609,15.19-14.667C121.377,126.197,114.767,119.526,106.563,119.526z"/>
	<path fill-rule="evenodd" clip-rule="evenodd" fill="#FFFFFF" d="M130.3,115.917c-2.978,0.034-5.343-2.336-5.371-5.309
		c-0.032-3.001,2.365-5.395,5.371-5.404c2.973-0.019,5.366,2.403,5.366,5.404C135.666,113.524,133.272,115.917,130.3,115.917z"/>
</g>
</svg>
