<?xml version="1.0" encoding="utf-8"?>
<!-- Generator: Adobe Illustrator 16.0.0, SVG Export Plug-In . SVG Version: 6.00 Build 0)  -->
<!DOCTYPE svg PUBLIC "-//W3C//DTD SVG 1.1//EN" "http://www.w3.org/Graphics/SVG/1.1/DTD/svg11.dtd">
<svg version="1.1" id="圖層_1" xmlns="http://www.w3.org/2000/svg" xmlns:xlink="http://www.w3.org/1999/xlink" x="0px" y="0px"
	 width="43.002px" height="43.001px" viewBox="0 0 43.002 43.001" enable-background="new 0 0 43.002 43.001" xml:space="preserve">
<polygon fill="#323333" points="5.331,2.83 37.671,21.503 5.331,40.171 "/>
<g>
	<path fill-rule="evenodd" clip-rule="evenodd" fill="#FFFFFF" d="M6.077,21.848c0-0.976-0.018-1.945,0-2.921
		c0.019-0.868,0.019-1.741,0.209-2.597c0.407-1.8,1.443-3.048,3.202-3.664c0.641-0.222,1.293-0.333,1.957-0.342
		c2.005-0.03,4.01-0.045,6.009-0.05c0.658-0.003,1.322,0.015,1.976,0.063c1.184,0.084,2.292,0.392,3.22,1.167
		c0.951,0.787,1.478,1.804,1.699,3c0.132,0.712,0.155,1.431,0.161,2.155c0.013,1.795,0.03,3.596,0.013,5.392
		c-0.006,0.88-0.013,1.759-0.21,2.628c-0.407,1.788-1.431,3.04-3.19,3.661c-0.844,0.294-1.729,0.359-2.615,0.365
		c-1.902,0.013-3.8,0.03-5.703,0.019c-0.88-0.006-1.759-0.012-2.627-0.197C8.273,30.101,6.999,29,6.406,27.132
		c-0.18-0.58-0.264-1.179-0.274-1.777c-0.036-1.167-0.055-2.34-0.078-3.507C6.06,21.848,6.065,21.848,6.077,21.848z M15.324,13.947
		L15.324,13.947c-0.778,0-1.551-0.009-2.335,0c-0.777,0.012-1.562,0.024-2.334,0.146c-1.424,0.222-2.417,1.155-2.723,2.554
		c-0.155,0.706-0.174,1.418-0.174,2.13c-0.018,1.909-0.018,3.824,0.012,5.733c0.007,0.623,0.066,1.244,0.174,1.854
		c0.162,0.881,0.635,1.586,1.395,2.065c0.623,0.395,1.329,0.532,2.053,0.563c1.053,0.042,2.118,0.06,3.172,0.071
		c1.012,0.006,2.022,0,3.034-0.005c0.803-0.019,1.604-0.019,2.394-0.162c0.958-0.167,1.735-0.616,2.25-1.448
		c0.39-0.635,0.527-1.341,0.558-2.064c0.042-1.012,0.065-2.018,0.065-3.028c0.006-1.281,0-2.568-0.023-3.849
		c-0.006-0.628-0.025-1.256-0.168-1.873c-0.317-1.357-1.161-2.201-2.52-2.506c-0.706-0.159-1.413-0.162-2.125-0.177
		C17.131,13.932,16.228,13.947,15.324,13.947z"/>
	<path fill-rule="evenodd" clip-rule="evenodd" fill="#FFFFFF" d="M20.045,21.5c0.019,2.604-2.13,4.776-4.8,4.746
		c-2.566-0.03-4.715-2.136-4.685-4.817c0.023-2.55,2.147-4.668,4.703-4.674C17.933,16.743,20.063,18.916,20.045,21.5z
		 M15.312,18.431c-1.718-0.006-3.076,1.376-3.082,3.129c0,1.599,1.407,2.999,2.998,3.017c1.748,0.019,3.13-1.37,3.148-3.04
		C18.382,19.813,17.012,18.431,15.312,18.431z"/>
	<path fill-rule="evenodd" clip-rule="evenodd" fill="#FFFFFF" d="M20.231,17.683c-0.617,0.006-1.107-0.485-1.113-1.101
		c-0.007-0.623,0.49-1.118,1.113-1.121c0.616-0.003,1.112,0.498,1.112,1.121C21.344,17.186,20.848,17.683,20.231,17.683z"/>
</g>
</svg>
