<?xml version="1.0" encoding="utf-8"?>
<!-- Generator: Adobe Illustrator 16.0.0, SVG Export Plug-In . SVG Version: 6.00 Build 0)  -->
<!DOCTYPE svg PUBLIC "-//W3C//DTD SVG 1.1//EN" "http://www.w3.org/Graphics/SVG/1.1/DTD/svg11.dtd">
<svg version="1.1" id="圖層_1" xmlns="http://www.w3.org/2000/svg" xmlns:xlink="http://www.w3.org/1999/xlink" x="0px" y="0px"
	 width="43.002px" height="43.002px" viewBox="0 0 43.002 43.002" enable-background="new 0 0 43.002 43.002" xml:space="preserve">
<g>
	<polygon fill="#323333" points="5.331,2.83 37.671,21.503 5.331,40.172 	"/>
	<g>
		<g>
			<path fill="#FFFFFF" d="M12.398,25.445H9.221c-0.4,0-0.725-0.318-0.725-0.723v-6.284c0-0.393,0.324-0.723,0.725-0.723
				c0.392,0,0.712,0.33,0.712,0.723v5.573h2.466c0.384,0,0.729,0.314,0.729,0.711C13.128,25.127,12.782,25.445,12.398,25.445z"/>
		</g>
		<g>
			<path fill="#FFFFFF" d="M14.61,25.445c-0.385,0-0.714-0.318-0.714-0.723v-6.284c0-0.393,0.329-0.723,0.714-0.723
				c0.397,0,0.716,0.33,0.716,0.723v6.284C15.326,25.127,15.008,25.445,14.61,25.445z"/>
		</g>
		<g>
			<path fill="#FFFFFF" d="M24.592,25.445c-0.398,0-0.727-0.318-0.727-0.723v-6.284c0-0.393,0.328-0.723,0.727-0.723h3.215
				c0.393,0,0.713,0.33,0.713,0.723c0,0.396-0.32,0.727-0.713,0.727h-2.498v5.557C25.309,25.127,24.994,25.445,24.592,25.445z"/>
		</g>
		<g>
			<path fill="#FFFFFF" d="M21.937,25.445c-0.231,0-0.445-0.107-0.583-0.295l-3.269-4.495v4.067c0,0.404-0.32,0.723-0.716,0.723
				c-0.401,0-0.732-0.318-0.732-0.723v-6.284c0-0.311,0.204-0.584,0.501-0.678c0.295-0.104,0.627,0.01,0.805,0.26l3.27,4.479
				l-0.019-4.061c0-0.393,0.32-0.723,0.728-0.723l0,0c0.396,0,0.714,0.33,0.714,0.723l0.02,6.284c0,0.316-0.198,0.59-0.498,0.688
				C22.087,25.436,22.01,25.445,21.937,25.445z"/>
		</g>
		<g>
			<path fill="#FFFFFF" d="M27.807,22.308h-3.215c-0.398,0-0.727-0.322-0.727-0.723c0-0.398,0.328-0.727,0.727-0.727h3.215
				c0.393,0,0.713,0.328,0.713,0.727C28.52,21.982,28.199,22.308,27.807,22.308z"/>
		</g>
		<g>
			<path fill="#FFFFFF" d="M27.807,25.445h-3.215c-0.398,0-0.727-0.318-0.727-0.723c0-0.396,0.328-0.711,0.727-0.711h3.215
				c0.393,0,0.713,0.314,0.713,0.711C28.52,25.127,28.199,25.445,27.807,25.445z"/>
		</g>
	</g>
</g>
</svg>
