<?xml version="1.0" encoding="utf-8"?>
<!-- Generator: Adobe Illustrator 16.0.0, SVG Export Plug-In . SVG Version: 6.00 Build 0)  -->
<!DOCTYPE svg PUBLIC "-//W3C//DTD SVG 1.1//EN" "http://www.w3.org/Graphics/SVG/1.1/DTD/svg11.dtd">
<svg version="1.1" id="圖層_1" xmlns="http://www.w3.org/2000/svg" xmlns:xlink="http://www.w3.org/1999/xlink" x="0px" y="0px"
	 width="42.422px" height="32.632px" viewBox="0 0 42.422 32.632" enable-background="new 0 0 42.422 32.632" xml:space="preserve">
<g>
	<path fill="#323333" d="M42.145,0.074c-0.172-0.1-0.385-0.1-0.557,0L20.57,12.209c2.139,1.269,4.469,2.365,6.563,3.936
		c-1.984,1.736-4.396,2.832-6.684,4.207l21.139,12.206c0.086,0.049,0.184,0.074,0.277,0.074c0.098,0,0.193-0.025,0.279-0.074
		c0.172-0.1,0.277-0.283,0.277-0.481V0.556C42.422,0.357,42.316,0.173,42.145,0.074z"/>
	<g>
		<g>
			<path fill="#323333" d="M0.547,32.632c-0.094,0-0.188-0.023-0.273-0.072C0.104,32.462,0,32.281,0,32.086V0.547
				c0-0.195,0.104-0.376,0.273-0.474s0.377-0.098,0.547,0l27.313,15.77c0.17,0.097,0.273,0.277,0.273,0.473
				s-0.104,0.376-0.273,0.474L0.82,32.56C0.736,32.608,0.643,32.632,0.547,32.632z M1.094,1.493v29.646l25.672-14.823L1.094,1.493z"
				/>
		</g>
		<g>
			<path fill="#323333" d="M10.289,14.358c-0.047,0.079-0.092-1.356-0.258-3.295c0,0,0.166-0.49,0.631-0.396
				c0,0,0.35,0.14,0.396,0.631C11.059,11.298,11.178,12.863,10.289,14.358z"/>
		</g>
		<g>
			<path fill="#323333" d="M6.387,17.863c0,0-1.168,0.209-2.078,0.162c0,0-0.42,0.024-0.563,0.257c0,0,0.025,0.516,0.539,0.678
				c0,0,1.332,0.375,2.313-0.746C6.598,18.214,6.779,17.802,6.387,17.863z"/>
		</g>
		<g>
			<path fill="#323333" d="M13.162,14.361c0,0-0.396,1.726-0.77,2.848c0,0-0.303,1.229-0.832,1.813c0,0-1.225,1.342-2.627,2.16
				c0,0,2.385-0.515,3.738-1.216c0,0,0.795-0.374,0.795-2.617c0,0,0.094-1.308-0.094-3.201
				C13.373,14.147,13.223,14.104,13.162,14.361z"/>
		</g>
	</g>
</g>
</svg>
