<?xml version="1.0" encoding="utf-8"?>
<!-- Generator: Adobe Illustrator 16.0.0, SVG Export Plug-In . SVG Version: 6.00 Build 0)  -->
<!DOCTYPE svg PUBLIC "-//W3C//DTD SVG 1.1//EN" "http://www.w3.org/Graphics/SVG/1.1/DTD/svg11.dtd">
<svg version="1.1" id="圖層_1" xmlns="http://www.w3.org/2000/svg" xmlns:xlink="http://www.w3.org/1999/xlink" x="0px" y="0px"
	 width="29.719px" height="72.708px" viewBox="0 0 29.719 72.708" enable-background="new 0 0 29.719 72.708" xml:space="preserve">
<g>
	<g>
		<polygon fill="#666666" points="28.855,26.104 14.785,1.991 0.865,26.103 0,25.603 14.781,-0.001 29.719,25.601 		"/>
	</g>
	<g>
		<g>
			<path fill="#666666" d="M15.34,26.946v10.563h-0.961V26.946H15.34z"/>
			<path fill="#666666" d="M19.289,50.038c0,1.047-0.18,1.965-0.543,2.758c-0.361,0.791-0.879,1.4-1.551,1.828
				c-0.672,0.426-1.447,0.641-2.328,0.641c-1.328,0-2.4-0.477-3.219-1.426c-0.816-0.951-1.227-2.234-1.227-3.848v-1.172
				c0-1.037,0.184-1.955,0.551-2.754c0.367-0.801,0.887-1.414,1.559-1.844s1.445-0.645,2.32-0.645s1.648,0.211,2.316,0.633
				c0.67,0.422,1.188,1.018,1.551,1.789c0.365,0.77,0.555,1.664,0.57,2.68V50.038z M18.328,48.804c0-1.371-0.309-2.443-0.93-3.219
				c-0.619-0.777-1.469-1.164-2.547-1.164c-1.057,0-1.898,0.389-2.527,1.168c-0.627,0.777-0.941,1.865-0.941,3.262v1.188
				c0,1.348,0.313,2.418,0.938,3.207s1.475,1.184,2.547,1.184c1.09,0,1.938-0.391,2.547-1.168c0.609-0.779,0.914-1.863,0.914-3.254
				V48.804z"/>
			<path fill="#666666" d="M12.332,68.075v4.633h-0.961V61.333h3.875c1.184,0,2.117,0.303,2.801,0.906
				c0.686,0.605,1.027,1.436,1.027,2.492c0,1.068-0.328,1.893-0.988,2.473c-0.658,0.582-1.613,0.871-2.863,0.871H12.332z
				 M12.332,67.263h2.914c0.934,0,1.645-0.221,2.133-0.664c0.49-0.443,0.734-1.063,0.734-1.855c0-0.787-0.242-1.414-0.73-1.881
				c-0.486-0.467-1.178-0.705-2.074-0.717h-2.977V67.263z"/>
			<rect x="5.824" y="26.134" fill="#666666" width="18.07" height="0.813"/>
		</g>
	</g>
</g>
</svg>
